<svg width="747" height="496" viewBox="0 0 747 496" fill="none" xmlns="http://www.w3.org/2000/svg">
<path d="M247.694 96.8605C252.694 96.214 257.62 95.8165 262.415 95.6971C281.98 95.2108 301.193 100.29 310.321 119.182C325.448 150.49 322.453 197.656 308.721 229.06C296.388 257.265 269.44 278.592 239.154 284.111C208.867 289.63 176.129 279.179 154.64 257.136C142.47 244.651 133.558 226.708 128.909 210.001C119.618 176.599 135.079 147.735 162.718 129.037C186.077 113.236 218.182 100.682 247.694 96.8605Z" fill="#E2F1AF"/>
<path d="M0.483276 494.87C0.483276 443.158 6.34509 406.712 30.2564 367.278C54.1694 327.844 95.0673 297.465 139.538 297.441C180.256 297.423 220.719 321.953 259.998 310.661C298.764 299.518 321.104 258.19 340.426 221.127C359.746 184.064 385.408 143.738 425.194 137.763C463.314 132.038 498.396 161.06 521.847 193.186C545.298 225.312 563.235 262.972 593.782 287.632C627.445 314.805 672.487 322.808 705.733 350.542C744.726 383.069 746.515 439.667 746.515 494.87" fill="#E2F1AF"/>
<path d="M697.031 243.682H49.9707V224.791H697.031V243.682Z" fill="#1D1D1D"/>
<path d="M697.031 243.682H242.882V224.791H697.031V243.682Z" fill="#4F4F4F"/>
<path d="M137.182 243.682L105.029 494.87H78.5045V243.682H137.182Z" fill="#1D1D1D"/>
<path d="M137.182 243.682L105.029 494.87H96.5915V243.682H137.182Z" fill="#4F4F4F"/>
<path d="M648.401 494.87H477.192V243.682H648.401V494.87Z" fill="#1D1D1D"/>
<path d="M668.495 494.87H497.286V243.682H668.495V494.87Z" fill="#4F4F4F"/>
<path d="M668.495 328.479H497.286V326.346H668.495V328.479Z" fill="black"/>
<path d="M668.495 412.207H497.286V410.075H668.495V412.207Z" fill="black"/>
<path d="M637.383 341.203H595.479L588.848 327.886L590.757 326.936L596.799 339.071H636.065L642.107 326.936L644.016 327.886L637.383 341.203Z" fill="black"/>
<path d="M637.383 257.474H595.479L588.848 244.157L590.757 243.207L596.799 255.342H636.065L642.107 243.207L644.016 244.157L637.383 257.474Z" fill="black"/>
<path d="M637.383 425.001H595.479L588.848 411.682L590.757 410.733L596.799 422.868H636.065L642.107 410.733L644.016 411.682L637.383 425.001Z" fill="black"/>
<path d="M215.213 224.792H268.588L280.933 166.172H227.557L215.213 224.792Z" fill="#B1B1B1"/>
<path d="M345.533 169.496H150.611L122.479 35.8995H317.4L345.533 169.496Z" fill="#373737"/>
<path d="M357.59 169.496H162.67L155.817 136.965L134.536 35.8995H329.457L350.737 136.965L357.59 169.496Z" fill="#B1B1B1"/>
<path d="M350.738 136.964H155.816L134.537 35.8988H329.457L350.738 136.964Z" fill="#B7F7ED"/>
<path d="M261.737 152.907C261.737 156.694 258.948 159.763 255.508 159.763C252.067 159.763 249.278 156.694 249.278 152.907C249.278 149.12 252.067 146.051 255.508 146.051C258.948 146.051 261.737 149.12 261.737 152.907Z" fill="white"/>
<path d="M296.501 224.791H203.663V211.962H296.501V224.791Z" fill="#373737"/>
<mask id="mask0_13_137" style="mask-type:luminance" maskUnits="userSpaceOnUse" x="155" y="35" width="99" height="102">
<path d="M155.816 35.8997H253.278V136.963H155.816V35.8997Z" fill="white"/>
</mask>
<g mask="url(#mask0_13_137)">
<g opacity="0.5">
<path d="M239.834 35.8993L155.815 136.964H217.107L253.279 35.8993H239.834Z" fill="white"/>
</g>
</g>
<mask id="mask1_13_137" style="mask-type:luminance" maskUnits="userSpaceOnUse" x="238" y="35" width="92" height="102">
<path d="M238.427 35.8997H329.458V136.963H238.427V35.8997Z" fill="white"/>
</mask>
<g mask="url(#mask1_13_137)">
<g opacity="0.5">
<path d="M238.427 136.964L284.846 35.8987H329.457L263.947 136.964" fill="white"/>
</g>
</g>
<path d="M320.616 224.792C320.616 224.792 304.137 225.596 298.151 218.965L267.987 210.38C267.987 210.38 265.556 209.923 265.154 207.511C264.751 205.1 283.239 194.347 320.616 200.528" fill="#FFB78F"/>
<path d="M251.079 224.792C251.079 224.792 259.124 208.717 278.015 208.717C296.903 208.717 300.861 224.792 300.861 224.792" fill="#23CE6B"/>
<path d="M556.823 41.2898C556.803 41.4928 556.779 41.6958 556.753 41.8989C556.701 42.3561 556.637 42.8116 556.567 43.2637C556.547 43.4172 556.521 43.5742 556.492 43.7277C556.467 43.9051 556.438 44.0791 556.405 44.2531C556.363 44.5022 556.318 44.7462 556.272 44.9918C556.226 45.2358 556.177 45.4815 556.127 45.7254C556.028 46.2099 555.921 46.6944 555.808 47.1806C554.02 54.8201 550.354 61.8693 547.034 68.9577L553.022 117.705L514.271 118.265L515.223 99.9336L515.637 91.9887C515.634 91.9921 515.622 91.9972 515.618 92.0007C512.305 94.1741 508.584 95.5986 505.019 95.7027C498.154 95.8972 491.124 92.6882 487.207 86.9202C481.288 78.2025 485.818 65.0083 488.02 54.484C489.754 46.1894 490.854 38.3726 493.341 30.7774C494.324 27.7681 495.522 24.7962 497.064 21.8414C497.11 21.7459 497.159 21.6503 497.211 21.5548C497.444 21.1198 497.69 20.6796 497.946 20.2497C497.951 20.2378 497.96 20.2241 497.968 20.2122C500.235 16.3737 503.269 12.7928 507.228 10.5665C512.389 7.66456 519.179 7.14594 524.96 7.62873C536.931 8.62333 549.943 12.7723 554.733 24.1548C555.551 26.0894 556.136 28.1076 556.516 30.1769C557.185 33.7954 557.234 37.5639 556.823 41.2898Z" fill="#FFD2B9"/>
<path d="M523.393 85.0843C521.737 90.5299 518.915 95.6001 515.221 99.9351L515.636 91.9902C515.632 91.9936 515.622 91.9987 515.619 92.0022C518.169 89.6684 520.696 87.3209 523.393 85.0843Z" fill="black"/>
<path d="M491.772 44.0629C490.23 47.5039 487.927 50.602 485.074 53.0706C484.359 53.6899 483.607 54.2733 483.001 55.0018C482.397 55.7285 481.944 56.6293 481.957 57.5744C481.978 58.8727 482.86 60.0021 483.853 60.838C486.48 63.0422 490.218 63.8508 493.521 62.9279" fill="#FFB78F"/>
<path d="M556.823 41.2898C556.803 41.4928 556.779 41.6958 556.753 41.8989C556.701 42.3561 556.637 42.8116 556.567 43.2637C556.547 43.4172 556.521 43.5742 556.492 43.7277C556.467 43.9051 556.438 44.0791 556.405 44.2531C556.363 44.5022 556.318 44.7462 556.272 44.9918C556.226 45.2358 556.177 45.4815 556.127 45.7254C556.028 46.2099 555.921 46.6944 555.808 47.1806C554.02 54.8201 550.354 61.8693 547.034 68.9577C542.773 71.2711 539.054 72.1497 534.371 70.8906C529.695 69.6333 525.238 66.658 522.649 62.1354C525.796 64.1076 529.718 65.3512 533.214 63.9643C536.703 62.579 539.27 59.068 539.441 55.3131C539.61 51.5616 537.317 47.7897 533.878 46.2935C530.428 44.7922 526.242 45.7664 523.775 48.5932C522.412 45.4815 521.478 42.1889 520.997 38.8315C520.537 35.6361 520.487 32.3777 520.861 29.1704C516.128 29.2318 511.729 28.5528 507.281 26.927C503.659 25.6049 500.28 23.3461 498.004 20.2668C497.994 20.2497 497.98 20.2293 497.968 20.2122C497.466 19.5281 497.023 18.8064 496.642 18.0439C494.527 13.813 494.689 8.31625 497.69 4.65518C500.481 1.25171 505.191 -0.0857925 509.588 0.158165C513.981 0.398712 518.171 2.00235 522.275 3.58552C528.243 5.88691 534.209 8.1866 540.176 10.4914C544.508 12.1616 548.998 13.9358 552.168 17.3325C555.082 20.4562 556.586 24.6922 557.118 28.9367C557.171 29.3649 557.217 29.788 557.252 30.2059C557.577 33.9574 557.234 37.4684 556.823 41.2898Z" fill="#565656"/>
<path d="M527.198 58.6697L525.714 58.076L525.881 50.7539L527.587 50.7931L527.466 56.0288C529.158 54.5634 531.122 53.4152 533.234 52.6629L533.807 54.2699C531.286 55.1673 529 56.689 527.198 58.6697Z" fill="black"/>
<path d="M491.774 69.7945C491.214 69.7945 490.658 69.6973 490.131 69.5028L490.728 67.9042C491.547 68.2096 492.494 68.1363 493.256 67.7098C494.02 67.2833 494.58 66.5173 494.752 65.6592L496.426 65.9935C496.156 67.3361 495.283 68.5338 494.087 69.2008C493.382 69.5932 492.577 69.7945 491.774 69.7945Z" fill="black"/>
<path d="M497.655 48.9943C497.522 50.3284 496.831 51.3503 496.114 51.2787C495.396 51.2053 494.923 50.0657 495.06 48.7316C495.195 47.3975 495.884 46.3756 496.602 46.4473C497.319 46.5206 497.79 47.6603 497.655 48.9943Z" fill="black"/>
<path d="M501.183 44.1161C501.84 44.2185 502.637 44.2322 503.022 43.6931C503.283 43.3297 503.249 42.8128 503.045 42.4136C502.84 42.0144 502.49 41.7107 502.135 41.436C500.627 40.2725 498.846 39.4656 496.976 39.1022C496.277 38.964 495.538 38.8907 494.861 39.1107C494.182 39.3325 493.58 39.9092 493.522 40.6206C493.348 42.7206 499.708 43.8858 501.183 44.1161Z" fill="black"/>
<path d="M595.183 205.903C595.183 205.903 615.92 127.652 599.535 118.29C577.028 105.428 473.337 111.86 454.449 126.729C440.379 137.805 409.837 167.723 409.837 167.723L316.194 186.611L320.616 224.792C320.616 224.792 407.024 233.233 426.718 228.811C447.799 224.079 459.672 213.138 459.672 213.138L454.048 256.945H584.664" fill="#948BD8"/>
<path d="M459.673 213.138L465.142 256.409H454.108L459.673 213.138Z" fill="#7571D3"/>
<path d="M333.332 446.076L328.995 471.862L325.129 494.871H223.938C224.562 472.597 245.432 471.232 251.89 470.535C259.527 469.711 268.983 469.676 274.108 465.585C277.564 462.825 279.903 459.234 281.478 455.048C282.438 452.509 283.119 449.756 283.597 446.83L333.332 446.076Z" fill="#FFD2B9"/>
<path d="M328.996 471.862L325.128 494.869H223.939C224.561 472.598 245.432 471.233 251.891 470.535C259.527 469.709 268.984 469.677 274.109 465.584C277.565 462.826 279.904 459.235 281.479 455.048C282.077 455.43 282.628 455.889 283.111 456.416C284.911 458.385 285.755 461.115 285.943 463.807C286.132 466.5 285.723 469.196 285.314 471.862H328.996Z" fill="black"/>
<path d="M254.756 455.742C254.112 456.945 255.297 458.443 256.406 459.487C261.662 464.436 273.236 467.979 275.242 467.363C275.041 466.623 273.557 464.412 269.675 461.213C265.864 458.071 261.829 455.723 258.882 454.932C255.655 454.067 254.978 455.329 254.756 455.742ZM274.505 469.513C270.522 469.513 263.532 466.495 260.649 464.948C254.013 461.389 251.254 457.762 252.876 454.734C253.4 453.758 254.495 452.579 256.732 452.509C260.47 452.4 265.4 455.44 268.009 457.269C271.854 459.963 275.249 463.17 276.655 465.439C276.936 465.893 277.794 467.28 277.183 468.418C276.764 469.201 275.791 469.513 274.505 469.513Z" fill="black"/>
<path d="M262.503 451.564C261.925 452.07 261.945 453.048 262.563 454.474C264.784 459.604 273.023 466.539 275.278 467.015C275.227 464.792 270.269 455.085 265.485 451.956C263.522 450.675 262.756 451.343 262.503 451.564ZM275.564 469.169C274.502 469.169 273.031 468.473 271.069 467.059C268.865 465.471 266.371 463.175 264.394 460.911C259.973 455.856 258.805 451.966 261.101 449.96C261.833 449.318 263.099 448.685 264.96 449.322C270.054 451.059 276.433 461.759 277.284 466.075C277.376 466.54 277.658 467.965 276.766 468.745C276.443 469.026 276.046 469.169 275.564 469.169Z" fill="black"/>
<path d="M326.321 488.846H224.965V486.714H326.321V488.846Z" fill="white"/>
<path d="M461.682 462.286L424.307 494.871H367.236C367.88 487.139 373.004 479.786 379.293 475.484C386.528 470.535 398.444 469.156 403.854 463.738C407.435 460.154 409.158 454.428 409.3 447.853C409.4 443.44 408.781 438.648 407.536 433.859L452.499 429.908L455.964 442.121L461.682 462.286Z" fill="#FFD2B9"/>
<path d="M461.682 462.286L424.307 494.871H367.236C367.88 487.139 373.004 479.786 379.293 475.484C386.528 470.535 398.444 469.156 403.854 463.738C407.435 460.154 409.158 454.428 409.3 447.853C414.254 452.997 416.738 460.623 415.596 467.785H423.502L455.964 442.121L461.682 462.286Z" fill="black"/>
<path d="M421.493 488.846H369.067V486.713H421.094L458.772 453.852L460.173 455.459L422.194 488.585L421.493 488.846Z" fill="white"/>
<path d="M385.662 453.916C384.353 453.916 383.543 454.3 383.243 455.057C382.748 456.306 383.499 457.659 385.478 459.078C391.264 463.232 403.063 465.048 404.917 464.131C404.187 462.209 394.042 454.977 386.877 454.006C386.433 453.947 386.029 453.916 385.662 453.916ZM402.809 466.498C398.883 466.498 393.148 465.005 389.528 463.572C382.866 460.936 379.931 457.635 381.26 454.272C381.629 453.343 382.501 452.171 384.575 451.864C388.224 451.321 393.588 453.737 396.464 455.223C400.769 457.447 404.583 460.187 406.178 462.199C406.487 462.589 407.427 463.773 406.965 464.943C406.525 466.061 404.929 466.498 402.809 466.498Z" fill="black"/>
<path d="M391.541 461.6C389.977 461.6 388.494 461.741 387.235 462.079C385.746 462.482 384.978 463.084 384.963 463.874C384.953 464.244 384.927 465.37 387.42 466.134C393.012 467.847 403.055 465.755 404.688 464.372C403.454 463.324 397.007 461.6 391.541 461.6ZM392.502 468.882C392.285 468.882 392.074 468.881 391.865 468.876C383.905 468.688 382.788 465.631 382.83 463.824C382.851 462.91 383.231 461.627 384.924 460.701C387.774 459.143 392.833 459.423 395.593 459.726C399.739 460.187 403.616 461.212 405.474 462.345C406.47 462.951 406.965 463.647 406.946 464.413C406.876 467.448 397.845 468.882 392.502 468.882Z" fill="black"/>
<path d="M354.777 312.771L394.164 449.913L459.272 429.23L425.929 312.771" fill="#425D8C"/>
<path d="M444.292 433.95L408.512 306.86L410.565 306.28L446.345 433.37L444.292 433.95Z" fill="white"/>
<path d="M502.676 245.773C502.676 245.773 352.768 238.13 323.027 252.068C293.287 266.008 267.163 449.913 267.163 449.913H337.897L364.021 312.771H447.857" fill="#4D7CCF"/>
<path d="M323.402 450.106L321.305 449.717L349.634 296.567L350.683 295.694H484.177V297.826H351.57L323.402 450.106Z" fill="white"/>
<path d="M562.851 93.6286C569.366 94.3212 575.963 95.7918 581.194 99.3027C586.424 102.814 590.053 108.708 589.089 114.64C587.948 121.663 581.127 126.716 574.824 131.014C565.784 137.176 555.873 143.623 544.697 143.712C537.768 143.768 531.206 141.332 524.86 138.935C516.074 135.617 486.303 129.332 494.128 115.58C497.506 109.641 506.614 105.332 512.857 102.336C520.114 98.854 527.898 96.3121 535.889 94.792C544.79 93.0997 553.883 92.7227 562.851 93.6286Z" fill="#7571D3"/>
<path d="M398.527 230.321L396.667 229.28C397.043 228.61 406.037 212.819 421.454 210.158C430.487 208.598 439.774 211.923 449.053 220.042L447.648 221.646C438.877 213.972 430.187 210.815 421.817 212.26C407.391 214.749 398.616 230.166 398.527 230.321Z" fill="white"/>
<path d="M622.924 229.814C630.685 200.924 609.213 172.315 579.302 171.951C578.817 171.946 578.326 171.943 577.831 171.943C577.318 171.943 576.808 171.946 576.299 171.951C545.571 172.34 518.819 193.077 510.32 222.609L505.703 238.649C502.482 249.839 492.245 257.548 480.599 257.548H452.268C430.394 257.548 410.834 271.174 403.254 291.694L398.737 303.931C394.375 315.74 403.111 328.282 415.701 328.282H565.65C583.829 328.282 599.746 316.077 604.464 298.519L622.924 229.814Z" fill="#373737"/>
<path d="M419.029 495.351L417.127 494.389L497.505 335.637L499.407 336.6L419.029 495.351Z" fill="black"/>
<path d="M577.885 495.351L497.505 336.6L499.407 335.637L579.787 494.389L577.885 495.351Z" fill="black"/>
<path d="M458.307 328.282C458.307 328.282 467.224 344.359 498.263 344.359C529.302 344.359 538.849 328.282 538.849 328.282" fill="#1E1E1E"/>
<path d="M230.021 335.162C216.945 335.2 204.755 331.38 194.536 324.764L190.959 305.077L188.784 320.581C174.196 308.697 164.857 290.615 164.792 270.331H164.997C200.818 270.331 229.915 299.314 230.021 335.162Z" fill="#23CE6B"/>
<path d="M103.999 284.499V284.666C103.999 314.521 79.8467 338.767 49.9695 338.855C49.9354 326.958 53.7364 315.946 60.2107 306.984L74.2033 306.784L63.1228 303.296C73.0261 291.826 87.6551 284.545 103.999 284.499Z" fill="#0DBC54"/>
<path d="M131.478 271.444C117.6 266.862 106.468 257.782 99.1749 246.357L112.256 246.173L96.1774 241.111C91.8817 232.653 89.5496 223.202 89.5496 213.5C89.5496 207.157 90.5476 200.713 92.6409 194.362C101.009 197.122 108.379 201.519 114.508 207.085L114.188 225.428L119.016 211.632C133.07 227.37 138.563 249.969 131.478 271.444Z" fill="#23CE6B"/>
<path d="M138.951 442.487L103.391 286.625L50.7267 339.607L49.2135 338.104L103.242 283.747L105.039 284.262L141.03 442.015L138.951 442.487Z" fill="black"/>
<path d="M138.926 442.304L130.425 271.724L91.6867 194.84L93.5906 193.881L132.431 270.963L132.544 271.392L141.057 442.198L138.926 442.304Z" fill="black"/>
<path d="M141.046 442.402L138.936 442.097L163.737 270.176L165.544 269.572L230.773 334.407L229.27 335.92L165.544 272.58L141.046 442.402Z" fill="black"/>
<path d="M189.464 389.629H90.5172L97.9213 457.161C100.274 478.621 118.402 494.869 139.99 494.869C161.579 494.869 179.707 478.621 182.059 457.161L189.464 389.629Z" fill="#948BD8"/>
<mask id="mask2_13_137" style="mask-type:luminance" maskUnits="userSpaceOnUse" x="90" y="389" width="100" height="106">
<path d="M90.5172 389.63L97.9212 457.162C100.272 478.622 118.403 494.87 139.991 494.87C161.581 494.87 179.707 478.622 182.061 457.162L189.463 389.63H90.5172Z" fill="white"/>
</mask>
<g mask="url(#mask2_13_137)">
<path d="M160.518 429.187C146.145 451.333 134.682 475.367 126.54 500.648C124.835 505.935 123.237 511.556 124.005 517.007C124.677 521.796 127.913 527.434 133.427 528.5C141.392 530.036 147.882 521.322 151.299 512.65C159.423 492.033 163.514 469.423 163.133 447.267C163.034 441.551 162.383 435.076 160.518 429.187ZM135.285 530.812C134.534 530.812 133.778 530.739 133.021 530.592C126.482 529.329 122.667 522.819 121.893 517.304C121.063 511.405 122.73 505.519 124.511 499.993C132.879 474.011 144.729 449.339 159.624 426.657C157.319 420.785 153.622 415.747 147.803 413.014C141.815 410.203 133.937 410.498 126.727 413.804C119.504 417.116 113.636 422.858 109.328 427.49C93.5218 444.487 81.8204 465.276 75.4928 487.608L73.4405 487.026C79.8619 464.372 91.7305 443.282 107.765 426.036C112.208 421.261 118.276 415.335 125.839 411.866C133.727 408.248 142.064 407.963 148.711 411.085C152.964 413.083 157.72 416.976 161.044 424.515C174.54 404.334 190.458 385.768 208.489 369.3L209.927 370.873C191.663 387.556 175.577 406.41 162.006 426.917C163.877 432.07 165.118 438.702 165.264 447.23C165.651 469.664 161.509 492.557 153.283 513.431C151.302 518.457 148.585 522.883 145.63 525.888C142.435 529.137 138.898 530.812 135.285 530.812Z" fill="white"/>
</g>
</svg>
